<?xml version="1.0" encoding="utf-8"?>
<!-- Generator: Adobe Illustrator 19.0.0, SVG Export Plug-In . SVG Version: 6.00 Build 0)  -->
<svg version="1.1" id="Layer_1" xmlns="http://www.w3.org/2000/svg" xmlns:xlink="http://www.w3.org/1999/xlink" x="0px" y="0px"
	 viewBox="719 -3 390 150" style="enable-background:new 719 -3 390 150;" xml:space="preserve">
<style type="text/css">
	.st0{fill:#962D3E;}
	.st1{fill:#FFFFFF;}
	.st2{fill:#979C9C;}
	.st3{fill:#343642;}
</style>
<g id="XMLID_10_">
	<g id="XMLID_69_">
		<path id="XMLID_59_" class="st0" d="M821.1,103.1h-70.4c-2.5,0-4.6-2-4.6-4.6V28.1h75V103.1z"/>
		<path id="XMLID_57_" class="st1" d="M753.5,86.9c2.1,0,3.5-0.2,4.1-0.6c0.6-0.4,1.1-0.8,1.2-1.3c0.2-0.5,0.3-1,0.3-1.7V47.9
			c0-1.4-0.2-2.3-0.7-2.7c-0.9-0.6-2.5-0.9-4.9-0.9v-3.7h15.7L784,79.2l14.2-38.6h15.6v3.7c-2.1,0-3.5,0.2-4.1,0.6s-1.1,0.8-1.2,1.3
			c-0.2,0.5-0.3,1-0.3,1.7v35.4c0,1.4,0.3,2.3,0.8,2.7c0.9,0.6,2.5,0.9,4.9,0.9v3.7h-18.5v-3.7c2.1,0,3.4-0.2,4.1-0.6
			c0.6-0.4,1-0.8,1.1-1.3c0.1-0.5,0.2-1,0.2-1.7V47.7l-15.5,42.9h-3.7l-17.1-42.9v35.6c0,1.4,0.2,2.3,0.7,2.7
			c0.9,0.6,2.5,0.9,4.9,0.9v3.7h-16.5L753.5,86.9L753.5,86.9z"/>
	</g>
	<g id="XMLID_66_">
		<path id="XMLID_5_" class="st2" d="M906.1,28.1h70.4c2.5,0,4.6,2,4.6,4.6v70.4h-75V28.1L906.1,28.1z"/>
		<path id="XMLID_50_" class="st1" d="M926.1,80.1c-1.1-1.9-1.9-4-2.5-6.4s-0.9-4.9-0.9-7.4s0.2-4.8,0.6-6.8c0.4-2,1-4,1.8-5.8
			c1.8-4,4.4-7.1,8-9.5s8-3.6,13.2-3.6s9.6,1.3,13.1,3.9s5.2,5.8,5.2,9.5c0,2.6-1,4.3-3.1,5.2c-0.6,0.3-1.3,0.4-2,0.4
			c-1.4,0-2.5-0.4-3.4-1.3s-1.3-1.9-1.3-3c0-2.3,0.9-3.9,2.8-4.7c-0.9-1.8-2.3-3.3-4.4-4.3c-2.1-1-4.2-1.6-6.4-1.6
			c-4.6,0-8.4,1.7-11.3,5.2c-2.9,3.4-4.4,8.6-4.4,15.5s1.5,12.1,4.5,15.7s6.7,5.4,11,5.4c3.5,0,6.3-0.9,8.2-2.7
			c1.9-1.8,2.9-3.7,2.9-5.9c0-2.1-0.5-3.5-1.5-4c-1-0.6-3.2-0.8-6.7-0.8v-4.3h14.9v21.3H960l-1.2-3.9c-1.9,1.9-4.7,3.3-8.6,4.1
			c-1.4,0.3-3.1,0.5-4.9,0.5s-3.7-0.2-5.5-0.6s-3.7-1-5.4-1.9c-1.7-0.8-3.3-1.9-4.8-3.2C928.4,83.5,927.2,82,926.1,80.1z"/>
	</g>
	<g id="XMLID_7_">
		<path id="XMLID_49_" class="st0" d="M1048.1,42h-59c-1.7,0-3-1.3-3-3v-8c0-1.7,1.3-3,3-3h59c1.7,0,3,1.3,3,3v8
			C1051.1,40.7,1049.8,42,1048.1,42z"/>
		<path id="XMLID_3_" class="st3" d="M1048.1,59h-59c-1.7,0-3-1.3-3-3v-8c0-1.7,1.3-3,3-3h59c1.7,0,3,1.3,3,3v8
			C1051.1,57.7,1049.8,59,1048.1,59z"/>
		<path id="XMLID_4_" class="st2" d="M1048.1,76h-59c-1.7,0-3-1.3-3-3v-8c0-1.7,1.3-3,3-3h59c1.7,0,3,1.3,3,3v8
			C1051.1,74.7,1049.8,76,1048.1,76z"/>
	</g>
	<g id="XMLID_2_">
		<path id="XMLID_44_" class="st3" d="M986.1,103.1v-22h2.1v20.1h12.5v1.9H986.1z"/>
		<path id="XMLID_41_" class="st3" d="M1012.9,81h1.8l9,22h-2.3l-2.8-6.9h-9.7l-2.8,6.9h-2.3L1012.9,81z M1018.2,94.5l-4.4-10.9
			l-4.4,10.9H1018.2z"/>
		<path id="XMLID_39_" class="st3" d="M1030.5,81.2h2l3,7.8l3.1-7.8h2l-3.8,9.4l4.1,10l7.8-19.5h2.3l-9.2,22h-1.9l-4.5-10.9
			l-4.6,10.9h-1.9l-9.1-22h2.3l7.9,19.5l4.1-10L1030.5,81.2z"/>
	</g>
	<g id="XMLID_68_">
		<rect id="XMLID_28_" x="826.1" y="28.1" class="st3" width="75" height="75"/>
		<path id="XMLID_53_" class="st1" d="M866.9,86.9c4.8-0.1,6.2-1.8,4.1-5l-10.2-16.4l-8.2,8v9.8c0,1.4,0.2,2.3,0.7,2.7
			c0.8,0.6,2.4,0.9,4.8,0.9v3.7h-18.7v-3.7c2.1,0,3.5-0.2,4.1-0.6c0.6-0.4,1.1-0.8,1.2-1.3c0.2-0.5,0.3-1,0.3-1.7V47.9
			c0-1.4-0.2-2.3-0.7-2.7c-0.9-0.6-2.5-0.9-4.9-0.9v-3.7h18.7v3.7c-2.1,0-3.5,0.2-4.1,0.6c-0.6,0.4-1,0.8-1.2,1.3
			c-0.2,0.5-0.3,1-0.3,1.7v19.9l19.8-19.9c1.2-1.2,1.4-2.1,0.5-2.7c-0.9-0.6-2.4-1-4.5-1v-3.7h17.8v3.7c-1.5,0.1-2.7,0.4-3.7,0.8
			c-1,0.5-2,1.3-3.1,2.4l-13.7,13.3l13.8,21.2c1.1,1.8,2.3,3.1,3.5,3.8c1.3,0.8,2.7,1.2,4.4,1.2c0.2,0,0.3,0,0.4,0v3.7h-20.9v-3.7
			H866.9z"/>
	</g>
</g>
</svg>
